<mxfile host="app.diagrams.net" modified="2021-03-03T20:59:50.986Z" agent="5.0 (Windows NT 10.0; Win64; x64) AppleWebKit/537.36 (KHTML, like Gecko) Chrome/88.0.4324.182 Safari/537.36" etag="4J5OJzOEYLw_Xxw7j7ua" version="14.4.2" type="github">
  <diagram id="nTXqlSJkfHc_vJtXaa_D" name="Page-1">
    <mxGraphModel dx="1992" dy="1304" grid="1" gridSize="10" guides="1" tooltips="1" connect="1" arrows="1" fold="1" page="1" pageScale="1" pageWidth="3300" pageHeight="2339" math="0" shadow="0">
      <root>
        <mxCell id="0" />
        <mxCell id="1" style="locked=1;" parent="0" />
        <mxCell id="DgLYITPG22J-Pu3IUz37-2" value="" style="triangle;whiteSpace=wrap;html=1;sketch=1;fillColor=none;strokeColor=#CCCCCC;" vertex="1" parent="1">
          <mxGeometry x="200" y="575" width="270" height="360" as="geometry" />
        </mxCell>
        <mxCell id="DgLYITPG22J-Pu3IUz37-6" value="Untitled Layer" parent="0" />
        <mxCell id="DgLYITPG22J-Pu3IUz37-1" value="" style="ellipse;whiteSpace=wrap;html=1;aspect=fixed;fillColor=none;sketch=1;" vertex="1" parent="DgLYITPG22J-Pu3IUz37-6">
          <mxGeometry x="80" y="560" width="390" height="390" as="geometry" />
        </mxCell>
        <mxCell id="DgLYITPG22J-Pu3IUz37-9" value="" style="ellipse;whiteSpace=wrap;html=1;aspect=fixed;sketch=1;fillColor=#FF0000;" vertex="1" parent="DgLYITPG22J-Pu3IUz37-6">
          <mxGeometry x="800" y="630" width="370" height="370" as="geometry" />
        </mxCell>
        <mxCell id="DgLYITPG22J-Pu3IUz37-12" value="" style="ellipse;whiteSpace=wrap;html=1;sketch=1;fillColor=#0000FF;" vertex="1" parent="DgLYITPG22J-Pu3IUz37-6">
          <mxGeometry x="770" y="850" width="395" height="350" as="geometry" />
        </mxCell>
        <mxCell id="DgLYITPG22J-Pu3IUz37-11" value="" style="ellipse;whiteSpace=wrap;html=1;sketch=1;fillColor=#00FF00;" vertex="1" parent="DgLYITPG22J-Pu3IUz37-6">
          <mxGeometry x="980" y="770" width="395" height="350" as="geometry" />
        </mxCell>
        <mxCell id="DgLYITPG22J-Pu3IUz37-8" value="" style="ellipse;whiteSpace=wrap;html=1;aspect=fixed;sketch=1;gradientDirection=east;fillStyle=hachure;strokeColor=none;rotation=-90;" vertex="1" parent="DgLYITPG22J-Pu3IUz37-6">
          <mxGeometry x="820" y="710" width="440" height="440" as="geometry" />
        </mxCell>
        <mxCell id="DgLYITPG22J-Pu3IUz37-13" value="" style="ellipse;whiteSpace=wrap;html=1;aspect=fixed;sketch=1;gradientDirection=east;fillStyle=hachure;strokeColor=none;rotation=-105;" vertex="1" parent="DgLYITPG22J-Pu3IUz37-6">
          <mxGeometry x="865" y="755" width="350" height="350" as="geometry" />
        </mxCell>
        <mxCell id="DgLYITPG22J-Pu3IUz37-14" value="" style="ellipse;whiteSpace=wrap;html=1;aspect=fixed;sketch=1;gradientDirection=east;fillStyle=hachure;strokeColor=none;rotation=-150;" vertex="1" parent="DgLYITPG22J-Pu3IUz37-6">
          <mxGeometry x="930" y="810" width="225" height="225" as="geometry" />
        </mxCell>
      </root>
    </mxGraphModel>
  </diagram>
</mxfile>
